# xmcd CD database file
# Copyright (C) 1993-1998 Ti Kan
#
# Track frame offsets:
#	150
#	13723
#	28385
#	38665
#	51183
#	66740
#	79313
#	94715
#	110068
#	121875
#	131340
#	155805
#	172418
#	190923
#	205355
#	227273
#	239860
#	254760
#	267470
#	279925
#	289720
#	302145
#	316613
#
# Disc length: 4433 seconds
#
# Revision: 1
# Processed by: cddbd v1.4b41PL1 Copyright (c) Steve Scherf et al.
# Submitted via: CDValet v3.31 - Copyright (c) 1997 Greg Leichner
#
DISCID=60114f17
DTITLE=Ronnie Dyson - His All Time Golden Classics
DYEAR=1900
DGENRE=
TTITLE0=I Don't Want To Cry
TTITLE1=Emmie
TTITLE2=A Touch Of Baby
TTITLE3=I Just Can't Help Belevin'
TTITLE4=She's Gone
TTITLE5=Band Of Gold
TTITLE6=If You Let Me Make Love To You (Why cant I Touch You)
TTITLE7=Make It With You
TTITLE8=Fever
TTITLE9=Do What Your Heart Tells You To Do
TTITLE10=Bridge Over Troubled Waters
TTITLE11=One Man Band (Plays All Alone)
TTITLE12=I Think I'll Tell Her
TTITLE13=Just Don't Want To Be Lonely
TTITLE14=Give In To Love
TTITLE15=When You Get Right Down To It
TTITLE16=A Wednesday In Your Garden
TTITLE17=Something
TTITLE18=Girl Don't Come
TTITLE19=Point Of No Return
TTITLE20=The Love Of A Woman
TTITLE21=The More You Do It (The More I Like It Done To Me)
TTITLE22=Don't Be Afraid
EXTD=
EXTT0=
EXTT1=
EXTT2=
EXTT3=
EXTT4=
EXTT5=
EXTT6=
EXTT7=
EXTT8=
EXTT9=
EXTT10=
EXTT11=
EXTT12=
EXTT13=
EXTT14=
EXTT15=
EXTT16=
EXTT17=
EXTT18=
EXTT19=
EXTT20=
EXTT21=
EXTT22=
PLAYORDER=
